<?xml version="1.0" encoding="utf-8"?>
<!-- Generator: Adobe Illustrator 16.0.0, SVG Export Plug-In . SVG Version: 6.00 Build 0)  -->
<!DOCTYPE svg PUBLIC "-//W3C//DTD SVG 1.1//EN" "http://www.w3.org/Graphics/SVG/1.1/DTD/svg11.dtd">
<svg version="1.1" id="Layer_1" xmlns="http://www.w3.org/2000/svg" xmlns:xlink="http://www.w3.org/1999/xlink" x="0px" y="0px"
	 width="255.715px" height="247.168px" viewBox="0 0 255.715 247.168" enable-background="new 0 0 255.715 247.168"
	 xml:space="preserve">
<g>
	<path fill-rule="evenodd" clip-rule="evenodd" fill="#F3F8FB" d="M42.41,25.582c0,5.126,0,9.827,0.049,14.539
		c0.07,11.865,9.577,21.25,21.425,21.25c11.817,0,21.331-9.43,21.422-21.287c0.041-4.698,0.041-9.397,0.041-14.298
		c28.303,0,56.479,0,85.037,0c0,4.766,0,9.511,0,14.264c0.11,9.218,5.889,17.281,14.604,20.234
		c13.813,4.652,28.175-5.547,28.304-20.096c0.032-4.792,0-9.559,0-14.882c7.611,0.287,15.04-0.123,22.247,1
		c11.865,1.844,20.156,12.793,20.176,25.306c0,34.366,0,68.764,0,103.151c0,21.922,0,43.899,0,65.834
		c-0.02,15.487-11.075,26.561-26.521,26.561c-67.737,0.013-135.427,0.013-203.134,0c-14.786,0-26.045-11.163-26.045-25.951
		c-0.021-56.424-0.021-112.846,0-169.278c0-15.31,11.076-26.292,26.43-26.348C31.676,25.568,36.906,25.582,42.41,25.582z
		 M238.863,93.778c-74.185,0-147.995,0-221.903,0c0,0.972-0.092,1.755-0.092,2.537c0,38.849,0,77.661,0,116.5
		c0,5.479,3.671,8.98,9.304,8.98c67.354,0,134.725-0.058,202.069,0.092c6.842,0.008,10.782-3.978,10.731-10.714
		c-0.202-37.647-0.109-75.34-0.109-113.035C238.863,96.756,238.863,95.341,238.863,93.778z"/>
	<path fill-rule="evenodd" clip-rule="evenodd" fill="#F3F8FB" d="M76.541,25.444c0,4.18,0.092,8.357,0,12.501
		c-0.143,7.384-5.707,13.033-12.71,12.972c-7.042-0.021-12.566-5.716-12.606-13.074c-0.09-8.244-0.09-16.507,0-24.754
		C51.265,5.684,56.75,0.047,63.831,0c7.113-0.067,12.689,5.719,12.73,13.191c0.071,4.11,0,8.199,0,12.252H76.541z"/>
	<path fill-rule="evenodd" clip-rule="evenodd" fill="#F3F8FB" d="M204.507,25.525c0,3.974,0.049,7.97,0,11.944
		c-0.042,7.756-5.593,13.544-12.771,13.449c-7.155-0.054-12.565-5.841-12.565-13.402c0-7.996,0-15.955,0-23.948
		c0-7.803,5.41-13.567,12.678-13.567c7.205-0.034,12.658,5.798,12.658,13.531C204.556,17.539,204.507,21.513,204.507,25.525
		L204.507,25.525z"/>
	<path fill-rule="evenodd" clip-rule="evenodd" fill="#F3F8FB" d="M85.438,136.112c0-8.41,0-16.622,0-25.035
		c11.189,0,22.305,0,33.606,0c0,8.325,0,16.602,0,25.035C107.876,136.112,96.81,136.112,85.438,136.112z"/>
	<path fill-rule="evenodd" clip-rule="evenodd" fill="#F3F8FB" d="M136.635,111.01c11.24,0,22.287,0,33.563,0
		c0,8.314,0,16.588,0,25.059c-11.134,0-22.262,0-33.563,0C136.635,127.781,136.635,119.574,136.635,111.01z"/>
	<path fill-rule="evenodd" clip-rule="evenodd" fill="#F3F8FB" d="M221.472,136.139c-11.259,0-22.305,0-33.583,0
		c0-8.335,0-16.635,0-25.069c11.165,0,22.281,0,33.583,0C221.472,119.381,221.472,127.598,221.472,136.139z"/>
	<path fill-rule="evenodd" clip-rule="evenodd" fill="#F3F8FB" d="M34.26,145.129c11.229,0,22.287,0,33.606,0
		c0,8.344,0,16.632,0,25.102c-11.189,0-22.308,0-33.606,0C34.26,161.918,34.26,153.664,34.26,145.129z"/>
	<path fill-rule="evenodd" clip-rule="evenodd" fill="#F3F8FB" d="M85.438,170.231c0-8.379,0-16.591,0-25.045
		c11.168,0,22.305,0,33.606,0c0,8.298,0,16.586,0,25.045C107.905,170.231,96.81,170.231,85.438,170.231z"/>
	<path fill-rule="evenodd" clip-rule="evenodd" fill="#F3F8FB" d="M170.293,170.265c-11.302,0-22.356,0-33.605,0
		c0-8.347,0-16.646,0-25.104c11.188,0,22.304,0,33.605,0C170.293,153.531,170.293,161.751,170.293,170.265z"/>
	<path fill-rule="evenodd" clip-rule="evenodd" fill="#F3F8FB" d="M221.472,145.161c0,8.381,0,16.59,0,25.024
		c-11.136,0-22.285,0-33.606,0c0-8.298,0-16.565,0-25.024C199.034,145.161,210.063,145.161,221.472,145.161z"/>
	<path fill-rule="evenodd" clip-rule="evenodd" fill="#F3F8FB" d="M34.26,204.357c0-8.378,0-16.587,0-25.022
		c11.137,0,22.287,0,33.606,0c0,8.286,0,16.587,0,25.022C56.729,204.357,45.651,204.357,34.26,204.357z"/>
	<path fill-rule="evenodd" clip-rule="evenodd" fill="#F3F8FB" d="M85.571,179.212c11.217,0,22.172,0,33.452,0
		c0,8.331,0,16.633,0,25.103c-11.119,0-22.235,0-33.452,0C85.571,195.943,85.571,187.599,85.571,179.212z"/>
	<path fill-rule="evenodd" clip-rule="evenodd" fill="#F3F8FB" d="M136.635,204.357c0-8.378,0-16.587,0-25.022
		c11.151,0,22.287,0,33.587,0c0,8.286,0,16.587,0,25.022C159.105,204.357,147.986,204.357,136.635,204.357z"/>
	<path fill-rule="evenodd" clip-rule="evenodd" fill="#F3F8FB" d="M221.452,204.382c-11.239,0-22.266,0-33.563,0
		c0-8.291,0-16.591,0-25.058c11.118,0,22.244,0,33.563,0C221.452,187.635,221.452,195.943,221.452,204.382z"/>
</g>
<g>
	<path fill-rule="evenodd" clip-rule="evenodd" fill="#F2F6FA" d="M-355.205,178.676c-0.017,3.09-0.026,6.189-0.06,9.289
		c13.807,26.594,13.688,24.445,47.168,22.908c34.083-1.562,68.499-3.676,102.623,2.013c21.059,3.507,28.609-2.047,30.314-20.998
		c0-1.409,0.035-2.819,0.035-4.212c1.961-2.819,2.428-6.131,3.385-9.341c3.748-12.431-2.682-14.111-12.021-10.817
		c-13.66,4.84-27.424,9.188-41.598,12.193c-17.609,3.787-35.442,3.821-53.29,3.431c-21.015-0.9-40.799-7.235-60.286-14.367
		C-349.083,165.073-355.647,165.701-355.205,178.676z"/>
	<path fill-rule="evenodd" clip-rule="evenodd" fill="#9C9C9D" d="M-365.785,120.647c2.717,2.147,5.442,4.304,8.16,6.453
		c1.325,4.398,1.426,11.225,8.491,4.296c4.824-21.53,6.13-43.373,6.454-65.364c0.306-22.094,5.291-28.785,27.392-30.53
		c35.417-2.777,71.037-2.603,106.462-0.038c18.357,1.324,22.271,7.344,24.871,25.71c2.027,14.46,1.391,29.303,5.926,43.376
		c0.855,1.605,2.217,2.649,3.965,3.117c7.344-1.92,5.467-8.814,7.488-13.913c-1.037,8.487,2.889,17.839-5.639,24.407
		c-2.352,2.857-3.686,6.147-4.346,9.735c-0.764,8.712-1.893,17.44,3.023,25.457c1.508,1.672,3.227,1.936,5.145,0.781
		c1.426-11.65-2.66-23.503,8.373-34.279c8.227-8.028,1.258-39.037-8.145-46.569c-5.104-4.084-3.508-9.009-4.064-13.747
		c-3.129-26.411-11.074-32.831-38.033-34.881c-36.053-2.739-71.954-2.297-107.949,0.166c-24.955,1.71-33.946,9.174-33.513,34.011
		c0.211,11.969-8.857,13.917-14.045,20.192c-1.673,2.495-0.051,4.16,1.4,5.901c6.98,9.999,7.039,19.967-0.084,29.914
		C-365.845,116.559-367.39,118.249-365.785,120.647z"/>
	<path fill-rule="evenodd" clip-rule="evenodd" fill="#939394" d="M-175.16,191.888c-0.92,12.228-6.82,16.643-19.656,16.404
		c-44.4-0.815-88.834-0.577-133.261-0.152c-11.87,0.109-21.66-0.204-21.057-15.946c0.145-3.193-3.005-4.33-6.131-4.229
		c0.255,15.004,11.608,25.777,15.2,39.722c1.868,7.234,10.512,4.415,16.421,4.805c6.046,0.392,10.877-3.142,10.598-8.456
		c-0.646-12.525,7.115-11.684,15.334-11.651c23.044,0.12,46.115,0.223,69.142-0.042c9.077-0.093,16.184-0.229,16.84,12.474
		c0.399,7.771,22.134,12.218,24.734,4.976C-182.607,217.479-168.494,207.588-175.16,191.888z"/>
	<path fill-rule="evenodd" clip-rule="evenodd" fill="#9D9EA0" d="M-355.205,178.676c2.997-7.1,6.538-8.985,14.775-5.468
		c19.028,8.167,39.015,13.696,59.981,14.468c1.231-1.4,1.586-3.006,1.163-4.789c-3.498-6.402-10.172-5.91-15.954-7.335
		c-17.748-4.366-36.045-7.066-51.5-17.9c-5.468-3.007-2.657-13.144-11.377-13.374C-358.083,155.817-361.769,167.679-355.205,178.676
		z"/>
	<path fill-rule="evenodd" clip-rule="evenodd" fill="#9D9E9F" d="M-168.393,154.136c-1.07,0-2.131,0-3.225-0.008
		c-16.127,13.289-38.35,12.813-55.194,24.488c-0.806,3.211,1.246,4.476,3.72,5.461c16.652-2.395,32.093-9.036,49.076-14.792
		c-0.406,6.716-0.764,12.542-1.109,18.392C-163.254,178.438-169.098,165.633-168.393,154.136z"/>
	<path fill-rule="evenodd" clip-rule="evenodd" fill="#A9ABAE" d="M-365.785,120.647c1.027-1.236,2.063-2.476,3.09-3.71
		c6.174-11.443,6.395-22.858-0.169-34.241c-0.959-1.223-1.927-2.45-2.904-3.668C-370.812,92.902-370.77,106.777-365.785,120.647z"/>
	<path fill-rule="evenodd" clip-rule="evenodd" fill="#A9ABAE" d="M-358.118,144.278c5.426,4.407,0.433,12.27,5.571,16.778
		c8.363-9.05,8.202-18.179,0.254-27.384c-1.775-2.19-3.549-4.381-5.333-6.571C-357.769,132.823-357.956,138.547-358.118,144.278z"/>
	<path fill-rule="evenodd" clip-rule="evenodd" fill="#A3A4A5" d="M-201.934,192.04c1.512,5.435,4.711,9.272,10.412,9.171
		c5.867-0.085,9.424-3.83,8.873-9.73c-0.51-5.512-4.094-9.646-9.842-9.308C-197.992,182.496-201.17,186.504-201.934,192.04z"/>
	<path fill-rule="evenodd" clip-rule="evenodd" fill="#9D9D9E" d="M-342.07,192.277c1.011,6.114,4.331,9.512,10.333,8.737
		c5.079-0.661,7.727-4.338,7.634-9.433c-0.086-6.012-3.643-9.756-9.382-9.477C-339.25,182.395-341.993,186.725-342.07,192.277z"/>
	<path fill-rule="evenodd" clip-rule="evenodd" fill="#8B8A8C" d="M-223.091,184.076c-1.155-0.985-2.318-1.988-3.465-2.973
		c-18.528-8.406-36.265-3.312-53.952,3.023c0.025,1.188,0.033,2.369,0.059,3.549C-261.167,189.357-242.027,188.235-223.091,184.076z
		"/>
	<path fill-rule="evenodd" clip-rule="evenodd" fill="#F3F8FB" d="M-280.508,184.127c18.12,1.537,35.968-2.039,53.952-3.023
		c13.839-4.584,27.757-8.976,41.521-13.806c6.318-2.225,13.205-4.45,13.418-13.17c-0.256-8.61-0.51-17.228-0.742-25.856
		c-3.488-6.919,4.58-15.172-2.52-21.673c-1.207-17.381-2.83-34.758-3.5-52.165c-0.482-12.423-5.418-20.871-18.102-22.451
		c-44.239-5.499-88.546-5.681-132.759,0.145c-13.663,1.8-18.027,11.352-18.604,24.068c-1.197,25.843-2.946,51.66-4.449,77.477
		c-0.094,9.129-0.17,18.256-0.254,27.384C-330.623,175.262-304.93,177.742-280.508,184.127z"/>
	<path fill-rule="evenodd" clip-rule="evenodd" fill="#E4E5E5" d="M-168.598,120.231c6.217-6.097,9.918-32.529,5.145-38.023
		c-0.965-1.095-2.75-1.961-4.201-2.029c-2.717-0.115-3.873,1.991-3.881,4.411c-0.061,7.311,0.051,14.622,0.084,21.937
		C-171.754,111.358-172.895,116.354-168.598,120.231z"/>
	<path fill-rule="evenodd" clip-rule="evenodd" fill="#F4F7F9" d="M-362.864,82.696c0.05,11.417,0.11,22.829,0.169,34.241
		c1.41,0.632,2.837,1.278,4.263,1.914c5.053-12.511,4.56-25.274,0.977-37.909C-357.956,79.164-361.302,81.083-362.864,82.696z"/>
	<path fill-rule="evenodd" clip-rule="evenodd" fill="#9D9E9F" d="M-168.598,120.231c-1.17-4.525,0.631-9.663-2.854-13.705
		c-1.143,0.03-2.291,0.043-3.428,0.072c-0.061,7.323-1.605,14.818,2.52,21.665C-171.967,125.181-171.535,122.112-168.598,120.231z"
		/>
	<path fill-rule="evenodd" clip-rule="evenodd" fill="#DDE0E2" d="M-197.354,228.78c6.383,0.188,9.244-2.945,8.906-9.297
		c-0.398-7.389-5.646-7.252-10.871-7.142c-5.855,0.128-10.113,2.438-9.287,9.062C-207.826,227.855-202.85,228.993-197.354,228.78z"
		/>
	<path fill-rule="evenodd" clip-rule="evenodd" fill="#E8EAEC" d="M-327.125,228.636c6.741,0.171,9.646-2.801,9.426-9.076
		c-0.289-7.396-5.537-7.09-10.623-7.021c-5.74,0.068-9.926,2.156-9.205,8.763C-336.788,227.703-332.076,228.942-327.125,228.636z"/>
	<path fill-rule="evenodd" clip-rule="evenodd" fill="none" stroke="#A1A2A3" stroke-width="4" stroke-miterlimit="10" d="
		M-331.523,120.473c0,3.253,0,6.496,0,9.752c0.678,0.9,1.544,1.741,1.91,2.769c9.46,26.203,9.46,26.203,37.208,26.203
		c25.348,0,50.717-0.374,76.037,0.17c10.494,0.237,16.218-3.838,17.164-13.977c1.707-18.693,10.504-36.915,3.887-56.198
		c-41.955-2.717-83.926-0.522-125.888-1.197c-9.859-0.167-12.483,5.671-11.836,14.213
		C-332.603,108.306-330.072,114.219-331.523,120.473z"/>
	<path fill-rule="evenodd" clip-rule="evenodd" fill="#A1A2A3" d="M-262.831,44.906c-15.266-0.013-30.5,0.221-45.741-0.089
		c-9.22-0.191-15.547,1.958-15.41,12.843c0.118,9.676,4.33,14.711,14.307,14.686c31.621-0.076,63.258-0.081,94.88,0.004
		c9.747,0.03,12.354-5.383,12.456-14.107c0.111-9.302-3.727-13.493-13.052-13.379C-231.211,45.076-247.02,44.927-262.831,44.906z"/>
	<path fill-rule="evenodd" clip-rule="evenodd" fill="#F1F6F9" d="M-262.711,65.909c14.622,0,29.25-0.055,43.899,0.021
		c5.639,0.026,9.986-0.972,9.933-8.096c-0.059-6.946-4.162-8.331-9.918-8.326c-29.267,0.055-58.553,0.042-87.831,0.042
		c-6.325,0-11.122,1.563-10.868,9.383c0.22,7.837,5.953,6.895,10.86,6.941C-292.007,65.994-277.368,65.918-262.711,65.909z"/>
</g>
<path fill-rule="evenodd" clip-rule="evenodd" fill="none" stroke="#A1A2A3" stroke-width="4" stroke-miterlimit="10" d="
	M510.473,166.7c0,6.186-5.016,11.201-11.201,11.201h-98.09c-6.186,0-11.201-5.015-11.201-11.201v-43.2
	c0-6.186,5.016-11.201,11.201-11.201h98.09c6.186,0,11.201,5.015,11.201,11.201V166.7z"/>
<path fill-rule="evenodd" clip-rule="evenodd" fill="none" stroke="#A1A2A3" stroke-width="4" stroke-miterlimit="10" d="
	M510.473,91.101c0,3.253-5.016,5.89-11.201,5.89h-98.09c-6.186,0-11.201-2.637-11.201-5.89V68.383c0-3.253,5.016-5.891,11.201-5.891
	h98.09c6.186,0,11.201,2.637,11.201,5.891V91.101z"/>
<path fill-rule="evenodd" clip-rule="evenodd" fill="none" stroke="#A1A2A3" stroke-width="4" stroke-miterlimit="10" d="
	M535.935,243.598c0,8.07-5.373,14.614-12,14.614H376.52c-6.628,0-12-6.544-12-14.614V54.159c0-8.071,5.372-14.614,12-14.614h147.415
	c6.627,0,12,6.543,12,14.614V243.598z"/>
<path fill-rule="evenodd" clip-rule="evenodd" fill="none" stroke="#A1A2A3" stroke-width="4" stroke-miterlimit="10" d="
	M550.197,118.732l135.496-2.321c0,0,3.851,14.992,1.197,28.203l-8.217,36.733"/>
</svg>
